<?xml version="1.0" encoding="UTF-8"?>
<svg xmlns="http://www.w3.org/2000/svg" xmlns:xlink="http://www.w3.org/1999/xlink" width="1290px" height="2580px" viewBox="0 0 1290 2580" version="1.1">
<g id="surface1">
<polygon fill="#2970ff" points="0,0 0,2580 1290,2580 1290,0"/>
<path transform="translate(0,1185)" style=" stroke:none;fill-rule:nonzero;fill:rgb(100%,100%,100%);fill-opacity:1;" d="M 0 200 L 57 200 L 57 128 L 70 128 L 111 200 L 171 200 L 123 117 C 144 109 159 93 159 64 L 159 63 C 160 21 131 0 78 0 L 0 0 Z M 57 91 L 57 43 L 76 43 C 94 43 105 49 105 66 L 105 67 C 105 83 95 91 76 91 Z M 57 91 "/>
<path transform="translate(0,1185)" style=" stroke:none;fill-rule:nonzero;fill:rgb(100%,100%,100%);fill-opacity:1;" d="M 255 203 C 299 203 325 184 329 151 L 282 151 C 280 161 273 168 257 168 C 239 168 228 157 227 138 L 330 138 L 330 125 C 330 72 296 49 256 49 C 212 49 177 79 177 126 L 177 128 C 176 177 209 203 255 203 Z M 227 110 C 230 92 240 83 255 83 C 271 83 280 93 281 110 Z M 227 110 "/>
<path transform="translate(0,1185)" style=" stroke:none;fill-rule:nonzero;fill:rgb(100%,100%,100%);fill-opacity:1;" d="M 409 203 C 450 203 475 187 475 153 C 475 122 455 111 415 106 C 397 104 390 101 390 94 C 390 87 396 83 407 83 C 418 83 424 88 426 98 L 471 98 C 468 63 442 51 406 51 C 372 51 343 67 343 99 C 343 129 360 141 399 146 C 419 149 426 152 426 159 C 426 166 420 171 408 171 C 394 171 389 165 387 154 L 341 154 C 343 186 368 203 409 203 Z M 409 203 "/>
<path transform="translate(0,1185)" style=" stroke:none;fill-rule:nonzero;fill:rgb(100%,100%,100%);fill-opacity:1;" d="M 554 203 C 566 203 575 200 582 199 L 582 161 C 578 163 573 164 568 164 C 558 164 553 159 553 149 L 553 89 L 582 89 L 582 55 L 553 55 L 553 25 L 503 25 L 503 55 L 485 55 L 485 89 L 503 89 L 503 154 C 503 187 521 203 554 203 Z M 554 203 "/>
<path transform="translate(0,1185)" style=" stroke:none;fill-rule:nonzero;fill:rgb(100%,100%,100%);fill-opacity:1;" d="M 605 200 L 655 200 L 655 131 C 655 108 672 98 702 99 L 702 52 C 679 52 664 61 655 83 L 655 54 L 605 54 Z M 605 200 "/>
<path transform="translate(0,1185)" style=" stroke:none;fill-rule:nonzero;fill:rgb(100%,100%,100%);fill-opacity:1;" d="M 795 203 C 839 203 865 184 869 151 L 822 151 C 820 161 813 168 797 168 C 779 168 768 157 767 138 L 870 138 L 870 125 C 870 72 836 49 796 49 C 752 49 717 79 717 126 L 717 128 C 715 177 749 203 795 203 Z M 766 110 C 769 92 779 83 794 83 C 810 83 819 93 820 110 Z M 766 110 "/>
<path transform="translate(0,1185)" style=" stroke:none;fill-rule:nonzero;fill:rgb(100%,100%,100%);fill-opacity:1;" d="M 933 203 C 956 203 969 193 976 183 L 976 200 L 1025 200 L 1025 105 C 1025 66 999 50 959 50 C 919 50 891 67 889 103 L 936 103 C 937 94 942 86 956 86 C 972 86 975 95 975 109 L 975 112 L 961 112 C 912 112 883 125 883 160 C 883 190 906 203 933 203 Z M 950 170 C 938 170 933 165 933 156 C 933 144 942 140 962 140 L 975 140 L 975 149 C 975 161 964 170 950 170 Z M 950 170 "/>
<path transform="translate(0,1185)" style=" stroke:none;fill-rule:nonzero;fill:rgb(100%,100%,100%);fill-opacity:1;" d="M 1053 200 L 1103 200 L 1103 115 C 1103 99 1112 90 1125 90 C 1136 90 1144 97 1144 112 L 1144 200 L 1194 200 L 1194 115 C 1194 99 1203 90 1216 90 C 1227 90 1235 97 1235 112 L 1235 200 L 1285 200 L 1285 104 C 1285 67 1265 49 1237 49 C 1219 49 1201 56 1189 73 C 1182 57 1169 49 1149 49 C 1126 49 1111 61 1103 75 L 1103 53 L 1053 53 Z M 1053 200 "/>
</g>
</svg>
